<svg width="25" height="24" fill="none" xmlns="http://www.w3.org/2000/svg"><g clip-path="url('#clip0_320_223')" fill="#000"><path d="M17.59 0H6.585A6.504 6.504 0 0 0 .087 6.497v11.007A6.504 6.504 0 0 0 6.584 24h11.007a6.504 6.504 0 0 0 6.496-6.496V6.497A6.504 6.504 0 0 0 17.591 0Zm-5.503 18.562A6.57 6.57 0 0 1 5.525 12a6.57 6.57 0 0 1 6.562-6.562A6.57 6.57 0 0 1 18.65 12a6.57 6.57 0 0 1-6.563 6.562Zm6.72-11.577c-1.07 0-1.94-.87-1.94-1.939 0-1.07.87-1.94 1.94-1.94 1.069 0 1.939.87 1.939 1.94 0 1.07-.87 1.94-1.94 1.94Z"/><path d="M12.087 6.845A5.161 5.161 0 0 0 6.932 12a5.161 5.161 0 0 0 5.155 5.155A5.161 5.161 0 0 0 17.243 12a5.161 5.161 0 0 0-5.156-5.155ZM18.807 4.514a.533.533 0 1 0 .001 1.066.533.533 0 0 0-.001-1.066Z"/></g><defs><clipPath id="clip0_320_223"><path fill="#fff" transform="translate(.087)" d="M0 0h24v24H0z"/></clipPath></defs></svg>